# xmcd CD database file generated by OrangeCD 5.2
#
# Track frame offsets:
#	150
#	11020
#	22350
#	35332
#	56567
#	64822
#	77190
#	91490
#	107690
#	122100
#	137450
#	143407
#	158775
#	174555
#	187537
#	203027
#
# Disc length: 2834 seconds
#
# Revision: 2
# Processed by: cddbd v1.5.1PL0 Copyright (c) Steve Scherf et al.
# Submitted via: OrangeCD 5.2
#
DISCID=d00b1010
DTITLE=Louis Armstrong - Hello Dolly - Disc one
DYEAR=1900
DGENRE=Blues
TTITLE0=Mame
TTITLE1=Hello Dolly
TTITLE2=St. Louis Blues
TTITLE3=Jeepers Creepers
TTITLE4=Stomping at the Savoy
TTITLE5=Basin street blues
TTITLE6=Body and Soul
TTITLE7=I got rhythm
TTITLE8=Just a gigolo
TTITLE9=You're lucky to me
TTITLE10=Honeysuckle rose
TTITLE11=Mack the knife
TTITLE12=The peanut wendor
TTITLE13=That's my desire
TTITLE14=Mahogany hall stomp
TTITLE15=Royal garden blues
EXTD=
EXTT0=
EXTT1=
EXTT2=
EXTT3=
EXTT4=
EXTT5=
EXTT6=
EXTT7=
EXTT8=
EXTT9=
EXTT10=
EXTT11=
EXTT12=
EXTT13=
EXTT14=
EXTT15=
PLAYORDER=
